<svg version="1.1" viewBox="0.0 0.0 147.90813648293963 156.14698162729658" fill="none" stroke="none" stroke-linecap="square" stroke-miterlimit="10" xmlns:xlink="http://www.w3.org/1999/xlink" xmlns="http://www.w3.org/2000/svg"><clipPath id="p.0"><path d="m0 0l147.90814 0l0 156.14699l-147.90814 0l0 -156.14699z" clip-rule="nonzero"/></clipPath><g clip-path="url(#p.0)"><path fill="#000000" fill-opacity="0.0" d="m0 0l147.90814 0l0 156.14699l-147.90814 0z" fill-rule="evenodd"/><path fill="#000000" fill-opacity="0.0" d="m5.5826774 -16.0l325.10236 0l0 376.75592l-325.10236 0z" fill-rule="evenodd"/><path fill="#000000" fill-opacity="0.0" d="m14.582677 -3.307495l116.87499 0l0 149.9375l-116.87499 0l0 -149.9375z" fill-rule="nonzero"/><path fill="#000000" d="m62.832676 115.880005l-20.0625 -71.6875l-0.5625 0q0.375 5.75 0.625 11.125q0.125 2.3125 0.21875 4.75q0.09375 2.4375 0.1875 4.8125q0.09375 2.375 0.125 4.5625q0.03125 2.1875 0.03125 3.9375l0 42.5l-17.312498 0l0 -91.375l26.374998 0l19.750004 69.875l0.375 0l21.0 -69.875l26.375 0l0 91.375l-18.0625 0l0 -43.25q0 -1.625 0.03125 -3.6875q0.03125 -2.0625 0.09375 -4.375q0.0625 -2.3125 0.15625 -4.6875q0.09375 -2.375 0.15625 -4.625q0.25 -5.25 0.4375 -10.9375l-0.5 0l-21.625 71.5625l-17.812504 0z" fill-rule="nonzero"/><path fill="#000000" fill-opacity="0.0" d="m131.45767 -3.307495l0 0l0 149.9375l0 0l0 -149.9375z" fill-rule="nonzero"/><path fill="#000000" d="m14.582677 124.200005l116.87499 0l0 11.519997l-116.87499 0l0 -11.519997z" fill-rule="nonzero"/></g></svg>